<svg width="96" height="96" fill="none" xmlns="http://www.w3.org/2000/svg"><circle cx="48" cy="48" r="48" fill="#FCB72B"/><path fill-rule="evenodd" clip-rule="evenodd" d="M53.8 24H33.01a4.003 4.003 0 00-3.997 3.998v39.978a4.003 4.003 0 003.998 3.998H53v-1.43a18.178 18.178 0 013.064-10.12.8.8 0 00-.1-1.008l-5.597-5.597a2.594 2.594 0 01.19-3.839 2.693 2.693 0 013.58.276l7.893 7.893 1.13-1.13-5.362-5.365V27.998A4.003 4.003 0 0053.8 24zm2.398 26.055l-.93-.93a4.303 4.303 0 00-5.729-.38 4.194 4.194 0 00-.303 6.204l5.142 5.142a19.77 19.77 0 00-2.971 10.284H33.01a2.4 2.4 0 01-2.399-2.398v-2.4h19.99V63.98h-19.99V30.397h25.586v19.658zM30.612 28.797h25.586v-.8A2.4 2.4 0 0053.8 25.6H33.01a2.4 2.4 0 00-2.398 2.399v.8zM60.155 42.6l-1.078 1.18 4.903 4.494a5.61 5.61 0 011.813 4.127v19.573h1.6V52.401a7.214 7.214 0 00-2.334-5.306L60.155 42.6zM33.81 38.392h3.199c.883 0 1.599-.716 1.599-1.599v-3.198c0-.883-.716-1.6-1.6-1.6H33.81c-.883 0-1.599.717-1.599 1.6v3.198c0 .883.716 1.6 1.6 1.6zm0-4.797h3.199v3.198H33.81v-3.198zm11.194 4.797h-3.198c-.883 0-1.6-.716-1.6-1.599v-3.198a1.6 1.6 0 011.6-1.6h3.198c.884 0 1.6.717 1.6 1.6v3.198c0 .883-.716 1.6-1.6 1.6zm0-4.797h-3.198v3.198h3.198v-3.198zm4.798 4.797H53c.883 0 1.6-.716 1.6-1.599v-3.198c0-.883-.717-1.6-1.6-1.6h-3.198c-.884 0-1.6.717-1.6 1.6v3.198c0 .883.716 1.6 1.6 1.6zm0-4.797H53v3.198h-3.198v-3.198zM37.009 46.388H33.81c-.883 0-1.599-.716-1.599-1.6v-3.197c0-.884.716-1.6 1.6-1.6h3.198c.883 0 1.599.716 1.599 1.6v3.198c0 .883-.716 1.6-1.6 1.6zm0-4.797H33.81v3.198h3.199V41.59zM33.81 54.384h3.199c.883 0 1.599-.716 1.599-1.6v-3.198c0-.883-.716-1.599-1.6-1.599H33.81c-.883 0-1.599.716-1.599 1.6v3.198c0 .883.716 1.599 1.6 1.599zm0-4.798h3.199v3.199H33.81v-3.199zm11.194-3.198h-3.198a1.6 1.6 0 01-1.6-1.6v-3.197c0-.884.717-1.6 1.6-1.6h3.198c.884 0 1.6.716 1.6 1.6v3.198c0 .883-.716 1.6-1.6 1.6zm0-4.797h-3.198v3.198h3.198V41.59zm4.798 4.797H53c.883 0 1.6-.716 1.6-1.6v-3.197c0-.884-.717-1.6-1.6-1.6h-3.198c-.884 0-1.6.716-1.6 1.6v3.198c0 .883.716 1.6 1.6 1.6zm0-4.797H53v3.198h-3.198V41.59zm-4.798 12.793h-3.198c-.883 0-1.6-.716-1.6-1.6v-3.198c0-.883.717-1.599 1.6-1.599h3.198c.884 0 1.6.716 1.6 1.6v3.198c0 .883-.716 1.599-1.6 1.599zm0-4.798h-3.198v3.199h3.198v-3.199zM33.81 62.38h3.199c.883 0 1.599-.716 1.599-1.6v-3.198c0-.883-.716-1.6-1.6-1.6H33.81c-.883 0-1.599.717-1.599 1.6v3.198c0 .884.716 1.6 1.6 1.6zm0-4.798h3.199v3.198H33.81v-3.198zm11.194 4.797h-3.198c-.883 0-1.6-.715-1.6-1.599v-3.198a1.6 1.6 0 011.6-1.6h3.198c.884 0 1.6.717 1.6 1.6v3.198c0 .884-.716 1.6-1.6 1.6zm0-4.797h-3.198v3.198h3.198v-3.198zm-.8 9.595h-1.598v1.6h1.599v-1.6z" fill="#495567"/></svg>